<svg width="20" height="20" viewBox="0 0 20 20" fill="none" xmlns="http://www.w3.org/2000/svg">
<path d="M9.99993 13.0701C9.39274 13.0701 8.79919 12.89 8.29433 12.5527C7.78947 12.2153 7.39598 11.7359 7.16362 11.1749C6.93126 10.6139 6.87047 9.99665 6.98892 9.40113C7.10738 8.80561 7.39977 8.25859 7.82912 7.82924C8.25846 7.39989 8.80548 7.1075 9.40101 6.98904C9.99653 6.87059 10.6138 6.93138 11.1748 7.16375C11.7357 7.39611 12.2152 7.7896 12.5525 8.29445C12.8899 8.79931 13.0699 9.39287 13.0699 10.0001C13.0673 10.8135 12.743 11.5928 12.1678 12.168C11.5927 12.7431 10.8133 13.0674 9.99993 13.0701ZM9.99993 7.93006C9.59053 7.93006 9.19031 8.05146 8.8499 8.27891C8.50949 8.50637 8.24418 8.82966 8.0875 9.2079C7.93083 9.58614 7.88984 10.0024 7.96971 10.4039C8.04958 10.8054 8.24673 11.1743 8.53622 11.4638C8.82572 11.7533 9.19456 11.9504 9.5961 12.0303C9.99764 12.1102 10.4138 12.0692 10.7921 11.9125C11.1703 11.7558 11.4936 11.4905 11.7211 11.1501C11.9485 10.8097 12.0699 10.4095 12.0699 10.0001C12.0699 9.45106 11.8518 8.92455 11.4636 8.53634C11.0754 8.14814 10.5489 7.93006 9.99993 7.93006Z" fill="#414042"/>
<path d="M10 16.5001C8.71442 16.5001 7.45772 16.1189 6.3888 15.4047C5.31988 14.6904 4.48676 13.6753 3.99479 12.4876C3.50282 11.2998 3.37409 9.99291 3.6249 8.73204C3.8757 7.47116 4.49477 6.31297 5.40381 5.40393C6.31285 4.49489 7.47104 3.87582 8.73191 3.62502C9.99279 3.37422 11.2997 3.50294 12.4874 3.99491C13.6752 4.48688 14.6903 5.32 15.4046 6.38892C16.1188 7.45784 16.5 8.71455 16.5 10.0001C16.5 11.724 15.8152 13.3773 14.5962 14.5963C13.3772 15.8153 11.7239 16.5001 10 16.5001ZM10 4.50012C8.9122 4.50012 7.84884 4.82269 6.94437 5.42704C6.0399 6.03139 5.33495 6.89037 4.91867 7.89536C4.50238 8.90036 4.39347 10.0062 4.60568 11.0731C4.8179 12.14 5.34173 13.12 6.11092 13.8892C6.8801 14.6584 7.86011 15.1822 8.92701 15.3944C9.9939 15.6067 11.0998 15.4977 12.1048 15.0815C13.1098 14.6652 13.9687 13.9602 14.5731 13.0558C15.1774 12.1513 15.5 11.0879 15.5 10.0001C15.4974 8.54224 14.917 7.14483 13.8862 6.11396C12.8553 5.08308 11.4579 4.50277 10 4.50012Z" fill="#414042"/>
<path d="M10.0001 19.9301C8.0361 19.9301 6.11624 19.3477 4.48326 18.2566C2.85028 17.1654 1.57753 15.6146 0.825949 13.8001C0.0743708 11.9856 -0.122276 9.98906 0.260875 8.06283C0.644026 6.13659 1.58977 4.36724 2.9785 2.9785C4.36724 1.58977 6.13659 0.644026 8.06283 0.260875C9.98906 -0.122276 11.9856 0.0743708 13.8001 0.825949C15.6146 1.57753 17.1654 2.85028 18.2566 4.48326C19.3477 6.11624 19.9301 8.0361 19.9301 10.0001C19.9274 12.6329 18.8804 15.1571 17.0187 17.0187C15.1571 18.8804 12.6329 19.9274 10.0001 19.9301ZM10.0001 1.07007C8.23388 1.07007 6.50736 1.59381 5.03883 2.57505C3.5703 3.55629 2.42572 4.95097 1.74983 6.58271C1.07394 8.21445 0.897094 10.01 1.24166 11.7422C1.58623 13.4745 2.43673 15.0657 3.68561 16.3145C4.93449 17.5634 6.52567 18.4139 8.25792 18.7585C9.99017 19.1031 11.7857 18.9262 13.4174 18.2503C15.0492 17.5744 16.4439 16.4298 17.4251 14.9613C18.4063 13.4928 18.9301 11.7663 18.9301 10.0001C18.9301 8.82737 18.6991 7.66615 18.2503 6.58271C17.8015 5.49927 17.1438 4.51484 16.3145 3.68561C15.4853 2.85638 14.5009 2.1986 13.4174 1.74983C12.334 1.30105 11.1728 1.07007 10.0001 1.07007Z" fill="#414042"/>
</svg>
