<svg width="24" height="24" viewBox="0 0 24 24" fill="none" xmlns="http://www.w3.org/2000/svg">
<path d="M12.0001 0.571411C5.6881 0.571411 0.571533 5.68798 0.571533 12C0.571533 18.312 5.6881 23.4286 12.0001 23.4286C18.3121 23.4286 23.4287 18.312 23.4287 12C23.4287 5.68798 18.3121 0.571411 12.0001 0.571411ZM12.0001 2.22741C14.4898 2.22741 16.7624 3.15884 18.4881 4.69141C17.2201 6.36398 15.2938 7.4777 13.3635 8.23141C12.2708 6.24132 11.0462 4.32657 9.69782 2.49998C10.4519 2.31821 11.225 2.22671 12.0007 2.22741H12.0001ZM7.84239 3.15313C9.11668 5.05941 10.351 6.82684 11.4784 8.82741C8.62696 9.56627 5.40468 10.0097 2.4281 10.0171C3.05553 6.97255 5.10068 4.44455 7.84239 3.1537V3.15313ZM19.5721 5.8217C20.9842 7.54739 21.7611 9.70561 21.7727 11.9354C19.5121 11.4897 17.2641 11.3731 14.975 11.604C14.7178 10.9623 14.4058 10.3526 14.107 9.69541C16.0801 8.89941 18.1898 7.53713 19.5721 5.82113V5.8217ZM12.2721 10.3394C12.5167 10.8594 12.8001 11.4114 13.0664 11.9754C9.88353 13.3788 6.49782 15.2543 4.74068 18.5423C3.05382 16.6756 2.15485 14.2285 2.2321 11.7137C5.64068 11.6977 8.98639 11.2714 12.2721 10.3394ZM17.4367 13.004C18.8589 13.0043 20.2751 13.1867 21.651 13.5468C21.4388 14.8704 20.9566 16.1362 20.2344 17.2654C19.5121 18.3946 18.5653 19.3632 17.4527 20.1108C16.9281 17.7251 16.4281 15.4423 15.5441 13.1406C16.1706 13.0493 16.803 13.0034 17.4361 13.0034L17.4367 13.004ZM21.7018 13.1811C21.695 13.2371 21.6887 13.292 21.6807 13.3468C21.6887 13.2914 21.6955 13.2366 21.7018 13.1811ZM13.7361 13.5868C14.6367 15.9143 15.3435 18.4914 15.8178 20.9994C14.6105 21.5117 13.3122 21.7748 12.0007 21.7731C9.82802 21.7762 7.71683 21.052 6.00353 19.716C7.77325 16.8451 10.5144 14.6726 13.7355 13.5874L13.7361 13.5868Z" fill="#414042"/>
</svg>
