<svg width="258" height="256" viewBox="0 0 258 256" fill="none" xmlns="http://www.w3.org/2000/svg">
<g clip-path="url(#clip0_589_944)">
<rect width="258" height="256" fill="white"/>
<ellipse cx="131.5" cy="124.5" rx="211.5" ry="191.5" fill="url(#paint0_linear_589_944)" fill-opacity="0.9"/>
<path d="M65.0092 157.2V123.36L52.712 148H45.4784L33.1813 123.36V157.2H20V100.4H34.3065L49.0952 130.08L63.9643 100.4H78.1904V157.2H65.0092Z" fill="white"/>
<path d="M107.492 158C102.669 158 98.5701 156.987 95.1944 154.96C91.8723 152.933 89.3272 150.267 87.559 146.96C85.7908 143.653 84.9066 140.08 84.9066 136.24C84.9066 132.347 85.7908 128.747 87.559 125.44C89.3272 122.133 91.8991 119.467 95.2748 117.44C98.6505 115.413 102.723 114.4 107.492 114.4C112.26 114.4 116.333 115.413 119.708 117.44C123.084 119.467 125.656 122.133 127.424 125.44C129.192 128.747 130.077 132.347 130.077 136.24C130.077 140.08 129.192 143.653 127.424 146.96C125.656 150.267 123.084 152.933 119.708 154.96C116.333 156.987 112.26 158 107.492 158ZM98.0879 136.24C98.0879 139.493 98.972 142.133 100.74 144.16C102.562 146.187 104.812 147.2 107.492 147.2C110.117 147.2 112.314 146.187 114.082 144.16C115.904 142.133 116.815 139.493 116.815 136.24C116.815 132.987 115.904 130.347 114.082 128.32C112.314 126.293 110.117 125.28 107.492 125.28C104.812 125.28 102.562 126.293 100.74 128.32C98.972 130.347 98.0879 132.987 98.0879 136.24Z" fill="white"/>
<path d="M161.692 157.6C157.941 157.6 154.404 156.907 151.082 155.52C147.814 154.08 144.894 152.08 142.322 149.52C139.803 146.907 137.821 143.84 136.374 140.32C134.981 136.747 134.284 132.773 134.284 128.4C134.284 124.453 134.981 120.773 136.374 117.36C137.821 113.947 139.83 110.933 142.402 108.32C145.027 105.707 148.055 103.68 151.484 102.24C154.967 100.747 158.718 100 162.736 100C167.988 100 172.596 101.12 176.561 103.36C180.579 105.6 183.58 108.613 185.563 112.4L175.757 119.76C174.471 117.253 172.596 115.28 170.131 113.84C167.666 112.4 165.041 111.68 162.254 111.68C159.361 111.68 156.816 112.453 154.619 114C152.422 115.493 150.707 117.547 149.475 120.16C148.242 122.773 147.626 125.68 147.626 128.88C147.626 132.133 148.269 135.067 149.555 137.68C150.841 140.24 152.609 142.267 154.86 143.76C157.164 145.2 159.816 145.92 162.817 145.92C167.961 145.92 172.596 143.573 176.721 138.88V137.04H165.63V127.52H187.652V157.2H176.721V151.6C172.381 155.6 167.371 157.6 161.692 157.6Z" fill="white"/>
<path d="M215.415 158C210.593 158 206.494 156.987 203.118 154.96C199.796 152.933 197.251 150.267 195.482 146.96C193.714 143.653 192.83 140.08 192.83 136.24C192.83 132.347 193.714 128.747 195.482 125.44C197.251 122.133 199.823 119.467 203.198 117.44C206.574 115.413 210.646 114.4 215.415 114.4C220.184 114.4 224.256 115.413 227.632 117.44C231.008 119.467 233.579 122.133 235.348 125.44C237.116 128.747 238 132.347 238 136.24C238 140.08 237.116 143.653 235.348 146.96C233.579 150.267 231.008 152.933 227.632 154.96C224.256 156.987 220.184 158 215.415 158ZM206.011 136.24C206.011 139.493 206.895 142.133 208.664 144.16C210.485 146.187 212.736 147.2 215.415 147.2C218.041 147.2 220.237 146.187 222.006 144.16C223.827 142.133 224.738 139.493 224.738 136.24C224.738 132.987 223.827 130.347 222.006 128.32C220.237 126.293 218.041 125.28 215.415 125.28C212.736 125.28 210.485 126.293 208.664 128.32C206.895 130.347 206.011 132.987 206.011 136.24Z" fill="white"/>
</g>
<defs>
<linearGradient id="paint0_linear_589_944" x1="131.5" y1="316" x2="131.5" y2="-67" gradientUnits="userSpaceOnUse">
<stop stop-color="#EDD789"/>
<stop offset="1" stop-color="#E98283"/>
</linearGradient>
<clipPath id="clip0_589_944">
<rect width="258" height="256" fill="white"/>
</clipPath>
</defs>
</svg>
