<svg width="22" height="22" viewBox="0 0 22 22" fill="none" xmlns="http://www.w3.org/2000/svg">
<path d="M11 21.41C10.6383 21.4107 10.2808 21.3323 9.95261 21.1803C9.62439 21.0283 9.3334 20.8063 9.10004 20.53L8.22004 19.53C8.07065 19.3544 7.88302 19.2153 7.67154 19.1234C7.46007 19.0315 7.23036 18.9893 7.00004 19L5.66004 19.12C5.29871 19.1501 4.93514 19.1013 4.59456 18.9769C4.25397 18.8526 3.94451 18.6556 3.68765 18.3997C3.43079 18.1438 3.23266 17.835 3.10702 17.4949C2.98138 17.1548 2.93123 16.7914 2.96004 16.43L3.00004 15.06C3.01866 14.8229 2.98026 14.5848 2.88805 14.3656C2.79585 14.1464 2.65252 13.9525 2.47004 13.8L1.47004 12.93C1.19236 12.6962 0.969126 12.4046 0.815985 12.0756C0.662845 11.7465 0.583496 11.3879 0.583496 11.025C0.583496 10.662 0.662845 10.3034 0.815985 9.97438C0.969126 9.64531 1.19236 9.3537 1.47004 9.11997L2.47004 8.23997C2.64843 8.08849 2.78917 7.89762 2.88115 7.68242C2.97313 7.46723 3.01383 7.2336 3.00004 6.99997L2.90004 5.62997C2.86989 5.26864 2.91869 4.90507 3.04307 4.56449C3.16745 4.2239 3.36442 3.91444 3.62034 3.65758C3.87625 3.40072 4.18497 3.2026 4.52509 3.07695C4.86522 2.95131 5.2286 2.90116 5.59004 2.92997L6.94004 2.99997C7.17382 3.02342 7.40983 2.99126 7.62881 2.9061C7.84779 2.82094 8.04353 2.6852 8.20004 2.50997L9.07004 1.50997C9.30323 1.22292 9.59743 0.991415 9.93127 0.832278C10.2651 0.673141 10.6302 0.590367 11 0.589971C11.3618 0.589219 11.7193 0.667598 12.0475 0.819615C12.3757 0.971632 12.6667 1.19361 12.9 1.46997L13.78 2.46997C13.9304 2.64444 14.1182 2.78272 14.3294 2.87449C14.5407 2.96626 14.7699 3.00915 15 2.99997L16.34 2.87997C16.7014 2.84982 17.0649 2.89862 17.4055 3.023C17.7461 3.14738 18.0556 3.34436 18.3124 3.60027C18.5693 3.85618 18.7674 4.1649 18.8931 4.50503C19.0187 4.84515 19.0689 5.20853 19.04 5.56997L19 6.93997C18.9814 7.17705 19.0198 7.41513 19.112 7.63434C19.2042 7.85354 19.3476 8.04749 19.53 8.19997L20.53 9.06997C20.8077 9.3037 21.031 9.59531 21.1841 9.92438C21.3372 10.2534 21.4166 10.612 21.4166 10.975C21.4166 11.3379 21.3372 11.6965 21.1841 12.0256C21.031 12.3546 20.8077 12.6462 20.53 12.88L19.53 13.76C19.3516 13.9115 19.2109 14.1023 19.1189 14.3175C19.0269 14.5327 18.9862 14.7663 19 15L19.12 16.35C19.1502 16.7113 19.1014 17.0749 18.977 17.4155C18.8526 17.756 18.6557 18.0655 18.3997 18.3224C18.1438 18.5792 17.8351 18.7773 17.495 18.903C17.1549 19.0286 16.7915 19.0788 16.43 19.05L15.06 19C14.8231 18.9822 14.5852 19.021 14.3662 19.1131C14.1471 19.2053 13.9531 19.3481 13.8 19.53L12.93 20.53C12.6972 20.8076 12.4065 21.0311 12.0784 21.1849C11.7502 21.3386 11.3924 21.4188 11.03 21.42L11 21.41ZM7.10004 18C7.46175 17.9992 7.81925 18.0776 8.14747 18.2296C8.47569 18.3816 8.76668 18.6036 9.00004 18.88L9.88004 19.88C10.019 20.0471 10.1934 20.1813 10.3905 20.273C10.5877 20.3646 10.8027 20.4114 11.02 20.41C11.2383 20.4082 11.4538 20.36 11.652 20.2686C11.8503 20.1773 12.0269 20.0448 12.17 19.88L13.04 18.88C13.2922 18.5736 13.6152 18.3333 13.9811 18.18C14.347 18.0267 14.7448 17.9649 15.14 18L16.49 18.1C16.7063 18.1199 16.9242 18.0917 17.1283 18.0173C17.3323 17.943 17.5173 17.8244 17.67 17.67C17.8235 17.5145 17.9415 17.3276 18.0157 17.1222C18.0899 16.9167 18.1187 16.6976 18.1 16.48L18 15.11C17.9635 14.7151 18.0225 14.3172 18.1722 13.9499C18.3219 13.5826 18.5578 13.2568 18.86 13L19.86 12.12C20.0283 11.9851 20.1647 11.8148 20.2598 11.6212C20.3548 11.4277 20.4061 11.2156 20.41 11C20.4083 10.7817 20.3601 10.5662 20.2687 10.368C20.1773 10.1697 20.0448 9.99314 19.88 9.84997L18.88 8.97997C18.5714 8.72533 18.3298 8.39897 18.1764 8.02941C18.023 7.65985 17.9625 7.25834 18 6.85997L18.1 5.50997C18.1193 5.29379 18.0907 5.07602 18.0164 4.8721C17.9421 4.66818 17.8239 4.4831 17.67 4.32997C17.515 4.17593 17.3282 4.05763 17.1226 3.98336C16.917 3.90908 16.6977 3.88062 16.48 3.89997L15.11 3.99997C14.7149 4.03913 14.3162 3.98126 13.9485 3.83139C13.5808 3.68152 13.2552 3.44418 13 3.13997L12.12 2.13997C11.9851 1.97176 11.8148 1.83529 11.6213 1.74024C11.4277 1.64519 11.2156 1.59389 11 1.58997C10.7817 1.59176 10.5663 1.63993 10.368 1.73131C10.1698 1.82268 9.99321 1.95516 9.85004 2.11997L8.98004 3.11997C8.72483 3.42795 8.39838 3.66905 8.02897 3.82239C7.65956 3.97574 7.25833 4.03669 6.86004 3.99997L5.51004 3.89997C5.29386 3.88074 5.07609 3.90929 4.87217 3.9836C4.66825 4.05791 4.48317 4.17616 4.33004 4.32997C4.17247 4.48877 4.05215 4.6806 3.97778 4.89159C3.90342 5.10259 3.87686 5.32746 3.90004 5.54997L4.00004 6.88997C4.03662 7.28488 3.97757 7.6828 3.82788 8.05006C3.67818 8.41733 3.44226 8.74315 3.14004 8.99997L2.14004 9.87997C1.97183 10.0149 1.83536 10.1852 1.74031 10.3787C1.64526 10.5723 1.59396 10.7844 1.59004 11C1.59182 11.2183 1.64 11.4337 1.73137 11.632C1.82275 11.8302 1.95523 12.0068 2.12004 12.15L3.12004 13.02C3.42869 13.2746 3.67027 13.601 3.82367 13.9705C3.97708 14.3401 4.03763 14.7416 4.00004 15.14L3.90004 16.49C3.88081 16.7062 3.90936 16.9239 3.98367 17.1278C4.05798 17.3318 4.17623 17.5168 4.33004 17.67C4.48509 17.824 4.67193 17.9423 4.87748 18.0166C5.08303 18.0909 5.30234 18.1193 5.52004 18.1L6.89004 18H7.10004Z" fill="#414042"/>
<path d="M11 14.5C10.0717 14.5 9.1815 14.1313 8.52513 13.4749C7.86875 12.8185 7.5 11.9283 7.5 11C7.5 10.0717 7.86875 9.1815 8.52513 8.52513C9.1815 7.86875 10.0717 7.5 11 7.5C11.9283 7.5 12.8185 7.86875 13.4749 8.52513C14.1313 9.1815 14.5 10.0717 14.5 11C14.5 11.9283 14.1313 12.8185 13.4749 13.4749C12.8185 14.1313 11.9283 14.5 11 14.5ZM11 8.5C10.337 8.5 9.70107 8.76339 9.23223 9.23223C8.76339 9.70107 8.5 10.337 8.5 11C8.5 11.663 8.76339 12.2989 9.23223 12.7678C9.70107 13.2366 10.337 13.5 11 13.5C11.663 13.5 12.2989 13.2366 12.7678 12.7678C13.2366 12.2989 13.5 11.663 13.5 11C13.5 10.337 13.2366 9.70107 12.7678 9.23223C12.2989 8.76339 11.663 8.5 11 8.5Z" fill="#414042"/>
</svg>
