<svg width="22" height="22" viewBox="0 0 22 22" fill="none" xmlns="http://www.w3.org/2000/svg">
<path d="M10.9999 21.3099C8.96082 21.3099 6.96749 20.7053 5.27202 19.5724C3.57655 18.4395 2.25509 16.8293 1.47475 14.9454C0.694409 13.0615 0.490236 10.9885 0.88805 8.98856C1.28586 6.98862 2.2678 5.15155 3.70967 3.70967C5.15155 2.2678 6.98862 1.28586 8.98856 0.88805C10.9885 0.490236 13.0615 0.694409 14.9454 1.47475C16.8293 2.25509 18.4395 3.57655 19.5724 5.27202C20.7053 6.96749 21.3099 8.96082 21.3099 10.9999C21.3073 13.7335 20.2202 16.3544 18.2873 18.2873C16.3544 20.2202 13.7335 21.3073 10.9999 21.3099ZM10.9999 1.68995C9.1586 1.68995 7.35861 2.23597 5.82759 3.25896C4.29657 4.28196 3.10328 5.73598 2.39863 7.43716C1.69398 9.13834 1.50961 11.0103 1.86884 12.8162C2.22806 14.6222 3.11475 16.2811 4.41678 17.5831C5.71881 18.8851 7.37769 19.7718 9.18365 20.1311C10.9896 20.4903 12.8615 20.3059 14.5627 19.6013C16.2639 18.8966 17.7179 17.7033 18.7409 16.1723C19.7639 14.6413 20.3099 12.8413 20.3099 10.9999C20.3047 8.5324 19.3221 6.16744 17.5773 4.42262C15.8325 2.6778 13.4675 1.69523 10.9999 1.68995Z" fill="#414042"/>
<path d="M7.10986 15C6.56597 15 6.03428 14.8387 5.58205 14.5365C5.12981 14.2344 4.77734 13.8049 4.5692 13.3024C4.36105 12.7999 4.3066 12.247 4.4127 11.7135C4.51881 11.1801 4.78073 10.6901 5.16532 10.3055C5.54992 9.92086 6.03992 9.65895 6.57337 9.55284C7.10681 9.44673 7.65975 9.50119 8.16224 9.70933C8.66474 9.91747 9.09423 10.2699 9.39641 10.7222C9.69858 11.1744 9.85986 11.7061 9.85986 12.25C9.85986 12.6111 9.78873 12.9687 9.65053 13.3024C9.51233 13.636 9.30977 13.9392 9.05441 14.1945C8.79905 14.4499 8.49589 14.6525 8.16224 14.7907C7.8286 14.9289 7.471 15 7.10986 15ZM7.10986 10.5C6.76165 10.5001 6.42139 10.6042 6.13262 10.7988C5.84385 10.9934 5.6197 11.2697 5.48885 11.5924C5.35799 11.9151 5.32638 12.2695 5.39805 12.6102C5.46973 12.951 5.64144 13.2626 5.8912 13.5052C6.14097 13.7479 6.45745 13.9105 6.80014 13.9722C7.14283 14.034 7.49617 13.9921 7.81493 13.852C8.1337 13.7118 8.40341 13.4798 8.58955 13.1855C8.7757 12.8912 8.86981 12.5481 8.85986 12.2C8.85724 11.7367 8.67202 11.2931 8.3444 10.9655C8.01678 10.6378 7.57318 10.4526 7.10986 10.45V10.5Z" fill="#414042"/>
<path d="M14.8899 15C14.346 15 13.8143 14.8387 13.3621 14.5365C12.9098 14.2344 12.5574 13.8049 12.3492 13.3024C12.1411 12.7999 12.0866 12.247 12.1927 11.7135C12.2988 11.1801 12.5608 10.6901 12.9454 10.3055C13.3299 9.92086 13.8199 9.65895 14.3534 9.55284C14.8868 9.44673 15.4398 9.50119 15.9423 9.70933C16.4448 9.91747 16.8743 10.2699 17.1764 10.7222C17.4786 11.1744 17.6399 11.7061 17.6399 12.25C17.6399 12.9793 17.3502 13.6788 16.8344 14.1945C16.3187 14.7103 15.6192 15 14.8899 15ZM14.8899 10.5C14.5438 10.5 14.2054 10.6026 13.9176 10.7949C13.6299 10.9872 13.4056 11.2605 13.2731 11.5803C13.1407 11.9001 13.106 12.2519 13.1735 12.5914C13.241 12.9309 13.4077 13.2427 13.6525 13.4874C13.8972 13.7322 14.209 13.8989 14.5485 13.9664C14.888 14.0339 15.2398 13.9992 15.5596 13.8668C15.8794 13.7343 16.1527 13.51 16.345 13.2222C16.5373 12.9345 16.6399 12.5961 16.6399 12.25C16.6466 12.016 16.6063 11.7831 16.5213 11.5649C16.4364 11.3468 16.3085 11.148 16.1454 10.9801C15.9822 10.8123 15.787 10.6789 15.5713 10.5878C15.3557 10.4968 15.124 10.4499 14.8899 10.45V10.5Z" fill="#414042"/>
<path d="M1.41982 9.35993C1.30455 9.35995 1.19282 9.32015 1.10353 9.24726C1.01424 9.17437 0.952873 9.07286 0.92982 8.95993C0.905941 8.83024 0.933222 8.69635 1.00594 8.58634C1.07865 8.47634 1.19115 8.39877 1.31982 8.36993C1.42982 8.34993 12.2498 5.99993 15.1598 1.99992C15.1985 1.94663 15.2473 1.90149 15.3034 1.86709C15.3595 1.8327 15.4219 1.80974 15.487 1.79952C15.552 1.7893 15.6184 1.79202 15.6824 1.80754C15.7464 1.82305 15.8067 1.85105 15.8598 1.88992C15.9653 1.9696 16.0357 2.08712 16.0562 2.2177C16.0768 2.34829 16.0458 2.48174 15.9698 2.58992C12.8298 6.89993 1.99982 9.24993 1.52982 9.34993L1.41982 9.35993Z" fill="#414042"/>
<path d="M17.9999 7.69991C15.5225 7.61728 13.0817 7.07825 10.7999 6.10991C10.6779 6.05687 10.582 5.95753 10.5332 5.83376C10.4844 5.70999 10.4868 5.57191 10.5399 5.44991C10.5929 5.32791 10.6923 5.23198 10.816 5.18322C10.9398 5.13446 11.0779 5.13687 11.1999 5.18991C11.2499 5.18991 15.9399 7.27991 19.8799 6.53991C20.011 6.51633 20.1461 6.54497 20.2564 6.61972C20.3666 6.69447 20.4433 6.80939 20.4699 6.93991C20.4933 7.06981 20.4643 7.20368 20.3894 7.31233C20.3145 7.42098 20.1996 7.4956 20.0699 7.51991C19.3873 7.64661 18.6941 7.70689 17.9999 7.69991Z" fill="#414042"/>
<path d="M12.6399 12.6999H9.35986C9.22726 12.6999 9.10008 12.6473 9.00631 12.5535C8.91254 12.4597 8.85986 12.3326 8.85986 12.2C8.86242 12.0681 8.91592 11.9424 9.00914 11.8492C9.10236 11.756 9.22806 11.7025 9.35986 11.7H12.6399C12.7717 11.7025 12.8974 11.756 12.9906 11.8492C13.0838 11.9424 13.1373 12.0681 13.1399 12.2C13.1399 12.3326 13.0872 12.4597 12.9934 12.5535C12.8996 12.6473 12.7725 12.6999 12.6399 12.6999Z" fill="#414042"/>
<path d="M4.86002 12.6999H1.27002C1.13741 12.6999 1.01023 12.6473 0.916466 12.5535C0.822698 12.4597 0.77002 12.3326 0.77002 12.2C0.77258 12.0681 0.82608 11.9424 0.919299 11.8492C1.01252 11.756 1.13821 11.7025 1.27002 11.7H4.86002C4.99263 11.7 5.1198 11.7526 5.21357 11.8464C5.30734 11.9402 5.36002 12.0673 5.36002 12.2C5.36002 12.3326 5.30734 12.4597 5.21357 12.5535C5.1198 12.6473 4.99263 12.6999 4.86002 12.6999Z" fill="#414042"/>
<path d="M20.7399 12.6999H17.1399C17.0073 12.6999 16.8801 12.6473 16.7863 12.5535C16.6926 12.4597 16.6399 12.3326 16.6399 12.2C16.6399 12.0673 16.6926 11.9402 16.7863 11.8464C16.8801 11.7526 17.0073 11.7 17.1399 11.7H20.7399C20.8725 11.7 20.9997 11.7526 21.0934 11.8464C21.1872 11.9402 21.2399 12.0673 21.2399 12.2C21.2399 12.3326 21.1872 12.4597 21.0934 12.5535C20.9997 12.6473 20.8725 12.6999 20.7399 12.6999Z" fill="#414042"/>
</svg>
